<?xml version="1.0" encoding="UTF-8"?>
<svg id="a" data-name="Layer 1" xmlns="http://www.w3.org/2000/svg" width="2417.281" height="1000" viewBox="0 0 2417.281 1000">
  <g>
    <path d="M681.22,652.136v-16.802c0-12.932,6.795-22.063,20.748-22.063,13.078,0,19.725,8.036,20.163,19.506l.074,5.699h-7.89l-.072-6.867c-.22-7.671-4.676-11.835-12.2-11.835-8.622,0-13.005,5.333-13.005,14.392v19.213c0,9.205,4.384,14.465,12.932,14.465,7.745,0,12.055-4.164,12.274-11.908l.072-6.867h7.89l-.074,5.626c-.438,11.615-7.085,19.651-20.163,19.651-13.953,0-20.748-9.131-20.748-22.209Z"/>
    <path d="M730.164,614.002h31.78v6.502h-24.183v20.017h22.94v6.576h-22.94v20.017h24.183v6.502h-31.78v-59.613Z"/>
    <path d="M770.122,614.002h7.231l24.037,44.345v-44.345h7.159v59.613h-7.233l-24.035-44.345v44.345h-7.159v-59.613Z"/>
    <path d="M829.803,620.503h-14.976v-6.502h37.55v6.502h-14.978v53.112h-7.597v-53.112Z"/>
    <path d="M888.536,668.282v-10.666c0-7.598-5.113-8.986-9.936-8.986h-12.346v24.985h-7.597v-59.613h20.017c12.42,0,17.679,4.237,17.679,16.072v.731c0,8.109-2.557,12.492-8.84,14.538,5.99,1.753,8.766,6.282,8.766,12.784v10.155c0,2.045.074,4.237.805,5.333h-7.745c-.731-.95-.803-3.214-.803-5.333ZM878.673,642.421c6.648,0,9.863-2.557,9.863-9.717v-3.214c0-7.672-3.215-9.205-10.228-9.205h-12.055v22.136h12.42Z"/>
    <path d="M903.506,652.209v-16.875c0-12.858,6.867-22.063,20.748-22.063,13.807,0,20.674,9.205,20.674,22.063v16.875c0,12.931-6.867,22.136-20.674,22.136-13.881,0-20.748-9.205-20.748-22.136ZM924.255,667.771c8.474,0,12.858-5.333,12.858-14.392v-19.14c0-8.986-4.384-14.392-12.858-14.392-8.548,0-12.93,5.406-12.93,14.392v19.14c0,9.059,4.382,14.392,12.93,14.392Z"/>
    <path d="M971.808,614.002h18.191c13.295,0,20.674,5.333,20.674,21.552v16.51c0,16.146-7.451,21.552-20.674,21.552h-18.191v-59.613ZM989.999,667.332c9.205,0,12.858-3.798,12.858-14.538v-17.971c0-10.74-3.653-14.538-12.932-14.538h-10.52v47.047h10.594Z"/>
    <path d="M1019.218,614.002h31.78v6.502h-24.183v20.017h22.94v6.576h-22.94v20.017h24.183v6.502h-31.78v-59.613Z"/>
    <path d="M1077.729,614.002h31.778v6.502h-24.181v20.017h22.94v6.576h-22.94v20.017h24.181v6.502h-31.778v-59.613Z"/>
    <path d="M1117.688,614.002h7.233l24.035,44.345v-44.345h7.159v59.613h-7.233l-24.035-44.345v44.345h-7.159v-59.613Z"/>
    <path d="M1177.37,620.503h-14.976v-6.502h37.55v6.502h-14.978v53.112h-7.597v-53.112Z"/>
    <path d="M1236.103,668.282v-10.666c0-7.598-5.113-8.986-9.936-8.986h-12.346v24.985h-7.597v-59.613h20.017c12.42,0,17.679,4.237,17.679,16.072v.731c0,8.109-2.557,12.492-8.84,14.538,5.99,1.753,8.766,6.282,8.766,12.784v10.155c0,2.045.074,4.237.805,5.333h-7.745c-.731-.95-.803-3.214-.803-5.333ZM1226.24,642.421c6.648,0,9.863-2.557,9.863-9.717v-3.214c0-7.672-3.215-9.205-10.228-9.205h-12.055v22.136h12.42Z"/>
    <path d="M1252.828,614.002h31.78v6.502h-24.183v20.017h22.94v6.576h-22.94v20.017h24.183v6.502h-31.78v-59.613Z"/>
    <path d="M1292.785,614.002h7.233l24.035,44.345v-44.345h7.159v59.613h-7.233l-24.035-44.345v44.345h-7.159v-59.613Z"/>
    <path d="M1352.613,614.002h10.228l15.487,59.613h-7.89l-2.849-11.762h-19.651l-2.849,11.762h-7.89l15.415-59.613ZM1366.056,655.351l-8.036-33.167-.294-.876-.218.803-8.036,33.24h16.584Z"/>
    <path d="M1384.315,614.002h8.912l14.174,45.221,14.173-45.221h8.986v59.613h-7.087v-43.542l-13.807,43.542h-4.456l-13.809-43.542v43.542h-7.085v-59.613Z"/>
    <path d="M1438.882,666.748h7.671v-45.879h-7.671v-6.867h22.94v6.867h-7.599v45.879h7.599v6.867h-22.94v-6.867Z"/>
    <path d="M1470.221,614.002h31.78v6.502h-24.183v20.017h22.94v6.576h-22.94v20.017h24.183v6.502h-31.78v-59.613Z"/>
    <path d="M1510.179,614.002h7.231l24.037,44.345v-44.345h7.159v59.613h-7.233l-24.035-44.345v44.345h-7.159v-59.613Z"/>
    <path d="M1569.86,620.503h-14.976v-6.502h37.55v6.502h-14.978v53.112h-7.597v-53.112Z"/>
    <path d="M1594.549,652.209v-16.875c0-12.858,6.867-22.063,20.748-22.063,13.807,0,20.674,9.205,20.674,22.063v16.875c0,12.931-6.867,22.136-20.674,22.136-13.881,0-20.748-9.205-20.748-22.136ZM1615.297,667.771c8.474,0,12.858-5.333,12.858-14.392v-19.14c0-8.986-4.384-14.392-12.858-14.392-8.548,0-12.93,5.406-12.93,14.392v19.14c0,9.059,4.382,14.392,12.93,14.392Z"/>
  </g>
  <g>
    <path d="M298.842,332.053h38.783c35.18,0,55.68,16.067,45.431,63.436l-22.716,106.652c-10.251,48.2-29.64,51.525-62.607,51.525h-45.983l47.092-221.613ZM294.411,537.875c28.532,0,37.949-.553,45.707-35.734l22.716-106.93c7.478-35.458.276-47.369-28.256-47.369h-18.838l-40.445,190.033h19.116Z"/>
    <path d="M413.805,332.053h78.672l-3.323,16.62h-58.729l-18.282,85.876h56.234l-3.324,16.62h-56.234l-18.282,85.874h58.45l-3.6,16.622h-78.672l47.092-221.613Z"/>
    <path d="M463.948,497.986l4.156-19.114h20.498l-4.985,23.545c-6.649,29.918,3.878,37.676,22.438,37.676,20.776,0,27.978-9.142,34.072-37.12,5.542-27.425,1.94-37.951-10.249-49.033l-21.329-19.389c-15.236-13.575-22.716-28.811-16.622-56.512,6.371-29.642,19.947-48.756,52.911-48.756,32.687,0,48.2,18.007,40.443,55.68l-2.216,11.636h-20.498l3.047-13.851c6.649-31.858-5.54-37.12-21.053-37.12-18.838,0-27.147,7.756-32.411,32.965-4.709,22.16-.553,32.134,9.696,41.552l21.331,19.116c16.067,14.405,24.376,29.363,17.174,63.99-6.925,33.52-19.945,53.187-54.849,53.187-34.072,0-49.863-18.836-41.552-58.45Z"/>
    <path d="M634.313,332.053h28.811l-11.911,221.613h-20.222l3.323-48.756h-44.045l-17.451,48.756h-20.5l81.996-221.613ZM635.422,488.29l9.418-134.908v-.553l-.276.831-48.2,134.63h39.058Z"/>
    <path d="M740.132,533.719l8.311-39.612c8.311-38.507-15.513-41.276-27.978-41.276h-18.007l-21.331,100.834h-20.22l47.092-221.613h39.336c36.013,0,52.08,19.667,43.769,58.45l-1.94,9.142c-5.262,25.209-15.236,39.058-40.998,45.429,18.284,6.649,25.762,25.487,20.222,51.249l-8.033,37.951c-1.938,9.14-3.047,16.067-1.385,19.391h-19.945c-1.94-3.602-.831-11.358,1.107-19.947ZM722.681,437.041c32.411,0,40.72-12.742,45.154-34.072l2.493-11.636c7.756-36.565-1.662-43.491-27.98-43.491h-17.451l-19.114,89.199h16.898Z"/>
    <path d="M850.662,533.719l8.311-39.612c8.311-38.507-15.513-41.276-27.978-41.276h-18.007l-21.331,100.834h-20.22l47.092-221.613h39.336c36.013,0,52.08,19.667,43.769,58.45l-1.94,9.142c-5.262,25.209-15.236,39.058-40.998,45.429,18.284,6.649,25.762,25.487,20.222,51.249l-8.033,37.951c-1.938,9.14-3.047,16.067-1.385,19.391h-19.945c-1.94-3.602-.831-11.358,1.107-19.947ZM833.211,437.041c32.411,0,40.72-12.742,45.154-34.072l2.493-11.636c7.756-36.565-1.662-43.491-27.98-43.491h-17.451l-19.114,89.199h16.898Z"/>
    <path d="M891.936,497.155l24.1-113.577c7.48-34.905,21.885-54.296,55.127-54.296,37.12,0,48.754,24.378,41.276,59.283l-23.824,113.021c-7.48,35.458-22.16,54.849-55.403,54.849-37.674,0-48.756-24.1-41.276-59.281ZM933.489,540.093c14.405,0,27.425-4.987,34.072-35.736l25.209-118.841c6.371-29.087-1.385-39.889-21.885-39.889-14.682,0-27.147,5.262-33.796,35.458l-25.209,118.563c-6.647,30.749,1.94,40.445,21.609,40.445Z"/>
    <path d="M1041.526,332.053h20.222l-42.936,204.991h58.727l-3.602,16.622h-78.95l46.538-221.613Z"/>
    <path d="M1129.897,332.053h20.222l-42.936,204.991h58.727l-3.602,16.622h-78.95l46.538-221.613Z"/>
    <path d="M1170.346,497.155l24.1-113.577c7.48-34.905,21.885-54.296,55.127-54.296,37.12,0,48.754,24.378,41.276,59.283l-23.824,113.021c-7.48,35.458-22.16,54.849-55.403,54.849-37.674,0-48.756-24.1-41.276-59.281ZM1211.899,540.093c14.405,0,27.425-4.987,34.072-35.736l25.209-118.841c6.371-29.087-1.385-39.889-21.885-39.889-14.682,0-27.147,5.262-33.796,35.458l-25.209,118.563c-6.647,30.749,1.94,40.445,21.609,40.445Z"/>
    <path d="M1311.438,328.495h39.058v221.613h-39.058v-221.613Z"/>
    <path d="M1360.468,328.495h34.903l37.951,127.428v-127.428h34.905v221.613h-34.905l-37.951-127.705v127.705h-34.903v-221.613Z"/>
    <path d="M1503.962,360.906h-31.858v-32.411h102.496v32.411h-31.58v189.202h-39.058v-189.202Z"/>
    <path d="M1578.48,328.495h85.321v32.411h-46.262v62.327h43.769v32.134h-43.769v62.329h46.262v32.411h-85.321v-221.613Z"/>
    <path d="M1668.792,490.825v-100.834c0-42.936,17.729-64.267,54.018-64.267s54.018,21.331,54.018,64.267v26.594h-39.891v-39.336c0-15.789-4.987-20.222-14.127-20.222s-14.129,4.433-14.129,20.222v124.381c0,14.682,4.156,19.945,14.129,19.945,10.802,0,14.127-6.094,14.127-20.498v-35.458h-14.127v-29.918h54.018v114.408h-17.453l-4.987-14.96c-8.863,11.082-20.498,17.729-37.118,17.729-29.642,0-48.478-21.329-48.478-62.052Z"/>
    <path d="M1852.453,530.439v-49.032c0-16.344-8.587-20.776-17.174-20.776h-10.804v89.476h-39.058v-221.613h49.585c42.107,0,57.343,12.465,57.343,56.787v3.602c0,34.903-7.202,47.647-27.978,55.68,21.607,7.756,27.978,24.1,27.978,43.214v42.66c0,8.033.278,14.682,3.047,19.669h-39.889c-2.771-3.324-3.049-11.358-3.049-19.669ZM1835.28,431.267c14.682,0,17.174-9.696,17.174-21.607v-31.025c0-16.069-3.878-20.778-17.174-20.778h-10.804v73.409h10.804Z"/>
    <path d="M1921.154,328.495h54.294l29.365,221.613h-39.614l-3.324-38.229h-26.869l-3.324,38.229h-39.891l29.365-221.613ZM1958.827,479.467l-9.696-109.421-.831-6.371-.553,6.371-9.696,109.421h20.776Z"/>
    <path d="M2007.306,328.495h39.058v189.202h47.094v32.411h-86.152v-221.613Z"/>
  </g>
</svg>