<?xml version="1.0" encoding="UTF-8"?>
<svg id="a" data-name="Layer 1" xmlns="http://www.w3.org/2000/svg" width="1500" height="1500" viewBox="0 0 1500 1500">
  <g>
    <path d="M747.31,1085.332v7.785s-.033-1.482-.13-4.284c.033-1.01.081-2.166.13-3.502Z"/>
    <g>
      <path d="M1032.948,503.91c-1.342,1.868-54.59,74.947-127.824,131.885-35.608,27.685-65.906,61.723-87.777,101.17-14.497,26.147-27.837,57.46-36.647,93.791-25.8,106.457-32.119,223.712-33.39,254.577-.049,1.336-.098,2.492-.13,3.502-.049-1.01-.098-2.166-.147-3.502-1.27-30.865-7.59-148.12-33.39-254.577-9.477-39.1-24.208-72.389-39.981-99.679-21.35-36.939-50.134-69.007-83.823-95.186-73.294-56.957-126.602-130.114-127.939-131.98,2.476,2.199,161.395,143.658,285.475,143.739h.098c124.08-.081,282.999-141.54,285.475-143.739Z"/>
      <path d="M747.18,1088.834c-.114,2.802-.147,4.284-.147,4.284v-7.785c.049,1.336.098,2.492.147,3.502Z"/>
    </g>
  </g>
  <circle cx="747.425" cy="545.377" r="56.568"/>
  <path d="M697.987,995.962s-5.049-145.46-42.91-221.541c-49.198-98.864-165.777-166.842-165.777-166.842,0,0,79.214,78.312,133.251,186.387,54.037,108.075,75.436,201.996,75.436,201.996Z"/>
  <path d="M797.059,995.962s5.049-145.46,42.91-221.541c49.198-98.864,165.777-166.842,165.777-166.842,0,0-79.214,78.312-133.251,186.387-54.037,108.075-75.436,201.996-75.436,201.996Z"/>
  <path d="M750.028,1185.087s-90.497-45.019-189.134-127.865c-71.053-59.66-112.435-139.307-130.778-181.474-10.33-23.745-15.565-48.933-15.565-74.865v-325.806c0-18.691,11.822-35.486,29.417-41.792l306.032-109.673,306.034,109.673c17.595,6.306,29.417,23.101,29.417,41.792v325.821c0,25.925-5.234,51.107-15.559,74.845-18.337,42.167-59.714,121.817-130.787,181.481-94.353,79.248-189.076,127.863-189.076,127.863ZM749.999,348.141l-298.243,106.881c-8.442,3.026-14.116,11.085-14.116,20.055v325.806c0,22.745,4.593,44.834,13.649,65.654,17.534,40.307,57.019,116.38,124.453,173.003,86.369,72.54,155.584,111.13,174.27,121.007,18.679-9.874,87.85-48.444,174.243-121.006,67.457-56.627,106.933-132.701,124.462-173.008,9.051-20.815,13.642-42.899,13.642-65.636v-325.821c0-8.97-5.673-17.029-14.116-20.055l-298.246-106.881Z"/>
</svg>