<?xml version="1.0" encoding="UTF-8"?>
<svg id="a" data-name="Layer 1" xmlns="http://www.w3.org/2000/svg" width="1500" height="1500" viewBox="0 0 1500 1500">
  <path d="M1056.805,427.706l-306.805-109.938-306.822,109.938c-18.505,6.647-30.945,24.314-30.945,43.965v325.811c0,26.25,5.308,51.758,15.763,75.782,18.425,42.352,60.003,122.361,131.412,182.331,100.16,84.107,182.895,122.958,190.285,126.636,0,0,95.4-46.434,190.899-126.636,71.441-59.97,113.003-139.979,131.411-182.331,10.455-24.023,15.763-49.515,15.763-75.765v-325.827c0-19.652-12.439-37.318-30.961-43.965ZM750.001,474.705c31.235,0,56.565,25.33,56.565,56.566s-25.33,56.566-56.565,56.566-56.567-25.315-56.567-56.566,25.331-56.566,56.567-56.566ZM625.122,779.864c-53.565-107.163-131.896-185.042-133.235-186.365,1.807,1.049,116.956,68.731,165.761,166.826,37.866,76.072,42.917,221.537,42.917,221.537,0,0-21.394-93.917-75.443-201.998ZM875.071,779.864c-54.033,108.082-75.442,201.998-75.442,201.998,0,0,5.05-145.465,42.917-221.537,48.806-98.095,163.954-165.777,165.761-166.826-1.339,1.323-79.67,79.202-133.235,186.365ZM907.694,621.686c-35.608,27.686-65.908,61.729-87.769,101.177-14.505,26.153-27.848,57.453-36.657,93.787-25.798,106.452-32.107,223.715-33.381,254.579-.048,1.339-.097,2.501-.129,3.501-.048-1-.097-2.162-.145-3.501-1.275-30.864-7.599-148.127-33.398-254.579-9.471-39.093-24.201-72.377-39.98-99.676-21.345-36.931-50.129-69.005-83.817-95.191-73.297-56.953-126.603-130.105-127.943-131.977,2.469,2.194,161.389,143.658,285.476,143.738h.097c124.086-.081,282.991-141.544,285.476-143.738-1.339,1.872-54.597,74.943-127.83,131.88Z"/>
</svg>