<?xml version="1.0" encoding="UTF-8"?>
<svg id="a" data-name="Layer 1" xmlns="http://www.w3.org/2000/svg" width="1500" height="1000" viewBox="0 0 1500 1000">
  <g>
    <path d="M270.776,761.485v-10.253c0-7.891,4.147-13.463,12.661-13.463,7.98,0,12.036,4.904,12.304,11.902l.045,3.477h-4.815l-.044-4.191c-.134-4.681-2.853-7.222-7.445-7.222-5.261,0-7.936,3.254-7.936,8.782v11.724c0,5.617,2.675,8.827,7.891,8.827,4.726,0,7.356-2.541,7.49-7.266l.044-4.191h4.815l-.045,3.433c-.267,7.088-4.324,11.991-12.304,11.991-8.514,0-12.661-5.572-12.661-13.552Z" fill="#fff"/>
    <path d="M300.642,738.214h19.392v3.967h-14.757v12.215h13.998v4.013h-13.998v12.215h14.757v3.967h-19.392v-36.377Z" fill="#fff"/>
    <path d="M325.025,738.214h4.413l14.668,27.06v-27.06h4.369v36.377h-4.414l-14.666-27.06v27.06h-4.369v-36.377Z" fill="#fff"/>
    <path d="M361.442,742.182h-9.138v-3.967h22.914v3.967h-9.139v32.409h-4.636v-32.409Z" fill="#fff"/>
    <path d="M397.281,771.337v-6.508c0-4.636-3.12-5.484-6.063-5.484h-7.534v15.246h-4.636v-36.377h12.215c7.579,0,10.788,2.585,10.788,9.807v.446c0,4.948-1.561,7.623-5.394,8.871,3.655,1.07,5.349,3.833,5.349,7.801v6.197c0,1.248.045,2.585.491,3.254h-4.726c-.446-.58-.49-1.961-.49-3.254ZM391.263,755.556c4.057,0,6.018-1.561,6.018-5.929v-1.961c0-4.681-1.962-5.617-6.241-5.617h-7.356v13.508h7.579Z" fill="#fff"/>
    <path d="M406.417,761.529v-10.297c0-7.846,4.191-13.463,12.661-13.463,8.425,0,12.616,5.617,12.616,13.463v10.297c0,7.89-4.191,13.508-12.616,13.508-8.47,0-12.661-5.617-12.661-13.508ZM419.077,771.025c5.171,0,7.846-3.254,7.846-8.782v-11.679c0-5.484-2.675-8.782-7.846-8.782-5.216,0-7.89,3.299-7.89,8.782v11.679c0,5.528,2.674,8.782,7.89,8.782Z" fill="#fff"/>
    <path d="M448.095,738.214h11.1c8.113,0,12.616,3.254,12.616,13.151v10.075c0,9.852-4.547,13.151-12.616,13.151h-11.1v-36.377ZM459.195,770.757c5.617,0,7.846-2.318,7.846-8.871v-10.966c0-6.553-2.229-8.871-7.891-8.871h-6.419v28.709h6.464Z" fill="#fff"/>
    <path d="M477.025,738.214h19.392v3.967h-14.757v12.215h13.998v4.013h-13.998v12.215h14.757v3.967h-19.392v-36.377Z" fill="#fff"/>
    <path d="M512.729,738.214h19.391v3.967h-14.755v12.215h13.998v4.013h-13.998v12.215h14.755v3.967h-19.391v-36.377Z" fill="#fff"/>
    <path d="M537.112,738.214h4.414l14.666,27.06v-27.06h4.369v36.377h-4.414l-14.666-27.06v27.06h-4.369v-36.377Z" fill="#fff"/>
    <path d="M573.53,742.182h-9.138v-3.967h22.914v3.967h-9.139v32.409h-4.636v-32.409Z" fill="#fff"/>
    <path d="M609.37,771.337v-6.508c0-4.636-3.12-5.484-6.063-5.484h-7.534v15.246h-4.636v-36.377h12.215c7.579,0,10.788,2.585,10.788,9.807v.446c0,4.948-1.561,7.623-5.394,8.871,3.655,1.07,5.349,3.833,5.349,7.801v6.197c0,1.248.045,2.585.491,3.254h-4.726c-.446-.58-.49-1.961-.49-3.254ZM603.351,755.556c4.057,0,6.018-1.561,6.018-5.929v-1.961c0-4.681-1.962-5.617-6.241-5.617h-7.356v13.508h7.579Z" fill="#fff"/>
    <path d="M619.575,738.214h19.392v3.967h-14.757v12.215h13.998v4.013h-13.998v12.215h14.757v3.967h-19.392v-36.377Z" fill="#fff"/>
    <path d="M643.957,738.214h4.414l14.666,27.06v-27.06h4.369v36.377h-4.414l-14.666-27.06v27.06h-4.369v-36.377Z" fill="#fff"/>
    <path d="M680.465,738.214h6.241l9.451,36.377h-4.815l-1.739-7.177h-11.991l-1.739,7.177h-4.815l9.407-36.377ZM688.668,763.446l-4.904-20.239-.179-.535-.133.49-4.904,20.284h10.12Z" fill="#fff"/>
    <path d="M699.81,738.214h5.438l8.649,27.594,8.648-27.594h5.483v36.377h-4.325v-26.569l-8.425,26.569h-2.719l-8.426-26.569v26.569h-4.324v-36.377Z" fill="#fff"/>
    <path d="M733.107,770.4h4.681v-27.995h-4.681v-4.191h13.998v4.191h-4.637v27.995h4.637v4.191h-13.998v-4.191Z" fill="#fff"/>
    <path d="M752.23,738.214h19.392v3.967h-14.757v12.215h13.998v4.013h-13.998v12.215h14.757v3.967h-19.392v-36.377Z" fill="#fff"/>
    <path d="M776.613,738.214h4.413l14.668,27.06v-27.06h4.369v36.377h-4.414l-14.666-27.06v27.06h-4.369v-36.377Z" fill="#fff"/>
    <path d="M813.031,742.182h-9.138v-3.967h22.914v3.967h-9.139v32.409h-4.636v-32.409Z" fill="#fff"/>
    <path d="M828.096,761.529v-10.297c0-7.846,4.191-13.463,12.661-13.463,8.425,0,12.616,5.617,12.616,13.463v10.297c0,7.89-4.191,13.508-12.616,13.508-8.47,0-12.661-5.617-12.661-13.508ZM840.757,771.025c5.171,0,7.846-3.254,7.846-8.782v-11.679c0-5.484-2.675-8.782-7.846-8.782-5.216,0-7.89,3.299-7.89,8.782v11.679c0,5.528,2.674,8.782,7.89,8.782Z" fill="#fff"/>
  </g>
  <g>
    <path d="M302.871,254.84h36.735c33.323,0,52.741,15.219,43.033,60.087l-21.516,101.021c-9.71,45.656-28.076,48.805-59.302,48.805h-43.555l44.606-209.913ZM298.674,449.796c27.025,0,35.946-.524,43.294-33.847l21.516-101.284c7.083-33.586.261-44.869-26.764-44.869h-17.843l-38.31,180h18.106Z" fill="#fff"/>
    <path d="M411.765,254.84h74.519l-3.147,15.743h-55.629l-17.317,81.342h53.265l-3.149,15.743h-53.265l-17.317,81.341h55.364l-3.41,15.745h-74.519l44.606-209.913Z" fill="#fff"/>
    <path d="M459.26,412.012l3.936-18.105h19.416l-4.722,22.302c-6.298,28.339,3.673,35.687,21.253,35.687,19.679,0,26.501-8.66,32.273-35.161,5.249-25.977,1.837-35.948-9.708-46.445l-20.203-18.366c-14.431-12.859-21.516-27.29-15.745-53.528,6.035-28.077,18.894-46.182,50.118-46.182,30.961,0,45.656,17.056,38.308,52.741l-2.099,11.021h-19.416l2.886-13.12c6.298-30.176-5.248-35.161-19.942-35.161-17.843,0-25.714,7.346-30.7,31.224-4.46,20.99-.524,30.437,9.184,39.358l20.205,18.106c15.219,13.644,23.089,27.812,16.267,60.611-6.559,31.75-18.892,50.379-51.954,50.379-32.273,0-47.23-17.841-39.358-55.364Z" fill="#fff"/>
    <path d="M620.631,254.84h27.29l-11.282,209.913h-19.155l3.147-46.182h-41.72l-16.53,46.182h-19.418l77.667-209.913ZM621.682,402.828l8.921-127.785v-.524l-.261.787-45.656,127.522h36.996Z" fill="#fff"/>
    <path d="M720.864,445.86l7.872-37.52c7.872-36.474-14.694-39.097-26.501-39.097h-17.056l-20.205,95.511h-19.153l44.606-209.913h37.259c34.112,0,49.331,18.629,41.458,55.364l-1.837,8.66c-4.985,23.878-14.431,36.996-38.834,43.031,17.319,6.298,24.402,24.141,19.155,48.544l-7.609,35.948c-1.836,8.658-2.886,15.219-1.311,18.368h-18.892c-1.837-3.412-.787-10.758,1.048-18.894ZM704.334,354.285c30.7,0,38.571-12.07,42.77-32.273l2.362-11.021c7.346-34.635-1.574-41.195-26.503-41.195h-16.53l-18.105,84.49h16.006Z" fill="#fff"/>
    <path d="M825.558,445.86l7.872-37.52c7.872-36.474-14.694-39.097-26.501-39.097h-17.056l-20.205,95.511h-19.153l44.606-209.913h37.259c34.112,0,49.331,18.629,41.458,55.364l-1.837,8.66c-4.985,23.878-14.431,36.996-38.834,43.031,17.319,6.298,24.402,24.141,19.155,48.544l-7.609,35.948c-1.836,8.658-2.886,15.219-1.311,18.368h-18.892c-1.837-3.412-.787-10.758,1.048-18.894ZM809.028,354.285c30.7,0,38.571-12.07,42.77-32.273l2.362-11.021c7.346-34.635-1.574-41.195-26.503-41.195h-16.53l-18.105,84.49h16.006Z" fill="#fff"/>
    <path d="M864.653,411.225l22.828-107.58c7.085-33.062,20.729-51.429,52.217-51.429,35.161,0,46.18,23.091,39.097,56.153l-22.567,107.054c-7.085,33.586-20.99,51.954-52.478,51.954-35.685,0-46.182-22.828-39.097-56.151ZM904.013,451.896c13.644,0,25.977-4.723,32.273-33.849l23.878-112.567c6.035-27.551-1.311-37.783-20.729-37.783-13.907,0-25.714,4.985-32.012,33.586l-23.878,112.304c-6.296,29.126,1.837,38.31,20.468,38.31Z" fill="#fff"/>
    <path d="M1006.346,254.84h19.155l-40.669,194.169h55.627l-3.412,15.745h-74.782l44.081-209.913Z" fill="#fff"/>
    <path d="M1090.052,254.84h19.155l-40.669,194.169h55.627l-3.412,15.745h-74.782l44.081-209.913Z" fill="#fff"/>
    <path d="M1128.365,411.225l22.828-107.58c7.085-33.062,20.729-51.429,52.217-51.429,35.161,0,46.18,23.091,39.097,56.153l-22.567,107.054c-7.085,33.586-20.99,51.954-52.478,51.954-35.685,0-46.182-22.828-39.097-56.151ZM1167.725,451.896c13.644,0,25.977-4.723,32.273-33.849l23.878-112.567c6.035-27.551-1.311-37.783-20.729-37.783-13.907,0-25.714,4.985-32.012,33.586l-23.878,112.304c-6.296,29.126,1.837,38.31,20.468,38.31Z" fill="#fff"/>
    <path d="M271.909,486.368h36.996v209.913h-36.996v-209.913Z" fill="#fff"/>
    <path d="M318.351,486.368h33.06l35.948,120.7v-120.7h33.062v209.913h-33.062l-35.948-120.963v120.963h-33.06v-209.913Z" fill="#fff"/>
    <path d="M454.27,517.068h-30.176v-30.7h97.085v30.7h-29.913v179.213h-36.996v-179.213Z" fill="#fff"/>
    <path d="M524.854,486.368h80.816v30.7h-43.82v59.037h41.458v30.437h-41.458v59.039h43.82v30.7h-80.816v-209.913Z" fill="#fff"/>
    <path d="M610.397,640.129v-95.511c0-40.669,16.793-60.874,51.166-60.874s51.166,20.205,51.166,60.874v25.19h-37.785v-37.259c0-14.956-4.723-19.155-13.381-19.155s-13.383,4.199-13.383,19.155v117.814c0,13.907,3.936,18.892,13.383,18.892,10.232,0,13.381-5.772,13.381-19.416v-33.586h-13.381v-28.339h51.166v108.368h-16.532l-4.723-14.17c-8.395,10.497-19.416,16.793-35.159,16.793-28.077,0-45.919-20.203-45.919-58.776Z" fill="#fff"/>
    <path d="M784.363,677.651v-46.443c0-15.482-8.134-19.679-16.267-19.679h-10.234v84.753h-36.996v-209.913h46.967c39.884,0,54.315,11.807,54.315,53.789v3.412c0,33.06-6.822,45.132-26.501,52.741,20.466,7.346,26.501,22.828,26.501,40.932v40.408c0,7.609.263,13.907,2.886,18.631h-37.783c-2.625-3.149-2.888-10.758-2.888-18.631ZM768.096,583.715c13.907,0,16.267-9.184,16.267-20.466v-29.387c0-15.22-3.673-19.681-16.267-19.681h-10.234v69.534h10.234Z" fill="#fff"/>
    <path d="M849.436,486.368h51.428l27.814,209.913h-37.522l-3.149-36.211h-25.451l-3.149,36.211h-37.785l27.814-209.913ZM885.121,629.37l-9.184-103.644-.787-6.035-.524,6.035-9.184,103.644h19.679Z" fill="#fff"/>
    <path d="M931.04,486.368h36.996v179.213h44.607v30.7h-81.604v-209.913Z" fill="#fff"/>
  </g>
</svg>