<?xml version="1.0" encoding="UTF-8"?>
<svg id="a" data-name="Layer 1" xmlns="http://www.w3.org/2000/svg" width="1500" height="1500" viewBox="0 0 1500 1500">
  <g>
    <path d="M749.86,1171.008v9.548s-.04-1.818-.16-5.254c.04-1.238.1-2.657.16-4.295Z"/>
    <g>
      <path d="M1100.176,457.931c-1.646,2.291-66.952,91.918-156.767,161.748-43.672,33.954-80.83,75.699-107.653,124.079-17.779,32.068-34.14,70.471-44.945,115.028-31.642,130.562-39.392,274.368-40.95,312.222-.06,1.638-.12,3.056-.16,4.295-.06-1.238-.12-2.657-.18-4.295-1.558-37.854-9.309-181.66-40.95-312.222-11.623-47.953-29.689-88.78-49.034-122.25-26.185-45.303-61.486-84.632-102.803-116.74-89.891-69.855-155.269-159.576-156.909-161.865,3.036,2.697,197.94,176.187,350.116,176.287h.12c152.176-.1,347.08-173.59,350.116-176.287Z"/>
      <path d="M749.7,1175.303c-.14,3.436-.18,5.254-.18,5.254v-9.548c.06,1.638.12,3.056.18,4.295Z"/>
    </g>
  </g>
  <circle cx="750.001" cy="508.788" r="69.377"/>
  <path d="M689.368,1062.142s-6.193-178.398-52.626-271.706c-60.339-121.251-203.315-204.621-203.315-204.621,0,0,97.15,96.045,163.424,228.592,66.274,132.547,92.518,247.736,92.518,247.736Z"/>
  <path d="M810.874,1062.142s6.193-178.398,52.626-271.706c60.339-121.251,203.315-204.621,203.315-204.621,0,0-97.15,96.045-163.424,228.592-66.274,132.547-92.518,247.736-92.518,247.736Z"/>
</svg>