<?xml version="1.0" encoding="UTF-8"?>
<svg id="a" data-name="Layer 1" xmlns="http://www.w3.org/2000/svg" width="1500" height="1000" viewBox="0 0 1500 1000">
  <g>
    <path d="M652.354,298.28h28.108c25.498,0,40.355,11.645,32.927,45.976l-16.464,77.298c-7.43,34.934-21.482,37.344-45.375,37.344h-33.327l34.13-160.618ZM649.142,447.453c20.679,0,27.505-.401,33.127-25.899l16.464-77.499c5.42-25.699.2-34.332-20.479-34.332h-13.653l-29.313,137.73h13.854Z"/>
    <path d="M735.676,298.28h57.019l-2.408,12.046h-42.565l-13.251,62.24h40.756l-2.409,12.046h-40.756l-13.251,62.239h42.362l-2.609,12.047h-57.019l34.13-160.618Z"/>
    <path d="M772.017,418.542l3.012-13.853h14.856l-3.613,17.065c-4.819,21.684,2.811,27.306,16.262,27.306,15.058,0,20.278-6.626,24.694-26.904,4.017-19.876,1.406-27.506-7.428-35.538l-15.459-14.053c-11.042-9.839-16.464-20.881-12.047-40.958,4.618-21.484,14.457-35.337,38.348-35.337,23.691,0,34.934,13.051,29.312,40.355l-1.606,8.433h-14.856l2.208-10.039c4.819-23.09-4.015-26.904-15.259-26.904-13.653,0-19.675,5.621-23.491,23.892-3.413,16.061-.401,23.289,7.027,30.115l15.46,13.854c11.645,10.44,17.667,21.281,12.447,46.378-5.019,24.294-14.455,38.548-39.753,38.548-24.694,0-36.139-13.652-30.115-42.362Z"/>
    <path d="M895.493,298.28h20.881l-8.633,160.618h-14.657l2.408-35.337h-31.922l-12.648,35.337h-14.858l59.428-160.618ZM896.296,411.515l6.826-97.777v-.401l-.2.602-34.934,97.575h28.308Z"/>
    <path d="M972.187,444.441l6.024-28.709c6.024-27.908-11.244-29.915-20.278-29.915h-13.051l-15.46,73.081h-14.655l34.13-160.618h28.509c26.101,0,37.746,14.254,31.722,42.362l-1.406,6.626c-3.814,18.271-11.042,28.308-29.714,32.926,13.252,4.819,18.672,18.472,14.657,37.144l-5.822,27.506c-1.405,6.625-2.208,11.645-1.003,14.054h-14.455c-1.406-2.611-.602-8.232.802-14.457ZM959.538,374.372c23.491,0,29.513-9.235,32.726-24.694l1.807-8.433c5.621-26.501-1.205-31.521-20.279-31.521h-12.648l-13.853,64.648h12.247Z"/>
    <path d="M1052.295,444.441l6.024-28.709c6.024-27.908-11.244-29.915-20.278-29.915h-13.051l-15.46,73.081h-14.655l34.13-160.618h28.509c26.101,0,37.746,14.254,31.722,42.362l-1.406,6.626c-3.814,18.271-11.042,28.308-29.714,32.926,13.252,4.819,18.672,18.472,14.657,37.144l-5.822,27.506c-1.405,6.625-2.208,11.645-1.003,14.054h-14.455c-1.406-2.611-.602-8.232.802-14.457ZM1039.647,374.372c23.491,0,29.513-9.235,32.726-24.694l1.807-8.433c5.621-26.501-1.205-31.521-20.279-31.521h-12.648l-13.853,64.648h12.247Z"/>
    <path d="M1082.209,417.94l17.467-82.317c5.421-25.298,15.861-39.352,39.954-39.352,26.904,0,35.335,17.668,29.915,42.966l-17.267,81.914c-5.421,25.699-16.061,39.753-40.154,39.753-27.305,0-35.337-17.467-29.915-42.965ZM1112.326,449.06c10.44,0,19.876-3.614,24.694-25.9l18.271-86.132c4.618-21.081-1.003-28.911-15.861-28.911-10.641,0-19.675,3.814-24.494,25.699l-18.271,85.931c-4.817,22.286,1.406,29.313,15.661,29.313Z"/>
    <path d="M1190.627,298.28h14.657l-31.119,148.571h42.564l-2.611,12.047h-57.22l33.729-160.618Z"/>
    <path d="M1254.675,298.28h14.657l-31.119,148.571h42.564l-2.611,12.047h-57.22l33.729-160.618Z"/>
    <path d="M1283.991,417.94l17.467-82.317c5.421-25.298,15.861-39.352,39.954-39.352,26.904,0,35.335,17.668,29.915,42.966l-17.267,81.914c-5.421,25.699-16.061,39.753-40.154,39.753-27.305,0-35.337-17.467-29.915-42.965ZM1314.108,449.06c10.44,0,19.876-3.614,24.694-25.9l18.271-86.132c4.618-21.081-1.003-28.911-15.861-28.911-10.641,0-19.675,3.814-24.494,25.699l-18.271,85.931c-4.817,22.286,1.406,29.313,15.661,29.313Z"/>
    <path d="M628.664,475.437h28.308v160.618h-28.308v-160.618Z"/>
    <path d="M664.199,475.437h25.296l27.506,92.355v-92.355h25.298v160.618h-25.298l-27.506-92.557v92.557h-25.296v-160.618Z"/>
    <path d="M768.199,498.927h-23.09v-23.491h74.286v23.491h-22.888v137.127h-28.308v-137.127Z"/>
    <path d="M822.207,475.437h61.838v23.491h-33.53v45.173h31.722v23.289h-31.722v45.174h33.53v23.491h-61.838v-160.618Z"/>
    <path d="M887.662,593.089v-73.081c0-31.119,12.849-46.579,39.151-46.579s39.151,15.46,39.151,46.579v19.274h-28.912v-28.509c0-11.443-3.614-14.657-10.239-14.657s-10.24,3.213-10.24,14.657v90.147c0,10.641,3.012,14.455,10.24,14.455,7.829,0,10.239-4.416,10.239-14.856v-25.699h-10.239v-21.684h39.151v82.919h-12.65l-3.614-10.842c-6.423,8.032-14.856,12.849-26.902,12.849-21.484,0-35.135-15.459-35.135-44.973Z"/>
    <path d="M1020.774,621.799v-35.536c0-11.846-6.223-15.058-12.447-15.058h-7.831v64.849h-28.308v-160.618h35.938c30.518,0,41.56,9.034,41.56,41.158v2.611c0,25.296-5.22,34.533-20.278,40.355,15.66,5.621,20.278,17.467,20.278,31.32v30.919c0,5.822.201,10.641,2.208,14.255h-28.911c-2.008-2.409-2.21-8.232-2.21-14.255ZM1008.327,549.923c10.641,0,12.447-7.027,12.447-15.66v-22.486c0-11.646-2.811-15.059-12.447-15.059h-7.831v53.205h7.831Z"/>
    <path d="M1070.566,475.437h39.35l21.282,160.618h-28.711l-2.409-27.707h-19.474l-2.409,27.707h-28.912l21.282-160.618ZM1097.87,584.857l-7.027-79.305-.602-4.618-.401,4.618-7.027,79.305h15.058Z"/>
    <path d="M1133.006,475.437h28.308v137.127h34.132v23.491h-62.44v-160.618Z"/>
  </g>
  <g>
    <g>
      <path d="M351.217,687.818v4.825s-.02-.919-.081-2.655c.02-.626.05-1.343.081-2.17Z"/>
      <g>
        <path d="M528.257,327.449c-.832,1.158-33.835,46.453-79.226,81.743-22.07,17.159-40.849,38.256-54.405,62.706-8.985,16.206-17.253,35.614-22.714,58.132-15.991,65.982-19.908,138.658-20.695,157.789-.03.828-.061,1.545-.081,2.17-.03-.626-.061-1.343-.091-2.17-.787-19.13-4.704-91.806-20.695-157.789-5.874-24.234-15.004-44.867-24.781-61.782-13.233-22.895-31.073-42.771-51.954-58.997-45.428-35.303-78.469-80.646-79.297-81.802,1.534,1.363,100.034,89.04,176.939,89.09h.061c76.905-.05,175.405-87.728,176.939-89.09Z"/>
        <path d="M351.136,689.989c-.071,1.736-.091,2.655-.091,2.655v-4.825c.03.828.061,1.545.091,2.17Z"/>
      </g>
    </g>
    <circle cx="351.288" cy="353.151" r="35.061"/>
    <path d="M320.646,632.426s-3.13-90.157-26.596-137.313c-30.493-61.277-102.75-103.41-102.75-103.41,0,0,49.097,48.538,82.59,115.524,33.493,66.986,46.756,125.199,46.756,125.199Z"/>
    <path d="M382.051,632.426s3.13-90.157,26.596-137.313c30.493-61.277,102.75-103.41,102.75-103.41,0,0-49.097,48.538-82.59,115.524-33.493,66.986-46.756,125.199-46.756,125.199Z"/>
    <path d="M351.901,749.647s-56.091-27.903-117.227-79.252c-44.039-36.977-69.688-86.344-81.057-112.479-6.402-14.717-9.648-30.329-9.648-46.402v-201.937c0-11.585,7.328-21.995,18.233-25.903l189.681-67.976,189.682,67.976c10.905,3.908,18.233,14.318,18.233,25.903v201.946c0,16.069-3.244,31.676-9.643,46.389-11.365,26.136-37.011,75.503-81.063,112.483-58.481,49.118-117.191,79.25-117.191,79.25ZM351.882,230.902l-184.853,66.246c-5.233,1.876-8.749,6.871-8.749,12.43v201.937c0,14.097,2.847,27.788,8.46,40.693,10.868,24.983,35.341,72.133,77.137,107.229,53.532,44.961,96.432,68.879,108.014,75.001,11.578-6.12,54.45-30.026,107.997-75,41.81-35.098,66.278-82.249,77.143-107.231,5.61-12.901,8.455-26.589,8.455-40.682v-201.946c0-5.56-3.516-10.555-8.749-12.43l-184.855-66.246Z"/>
  </g>
  <g>
    <path d="M627.31,690.256v-7.77c0-5.98,3.142-10.203,9.595-10.203,6.047,0,9.122,3.716,9.324,9.02l.034,2.635h-3.649l-.033-3.176c-.102-3.547-2.162-5.473-5.642-5.473-3.987,0-6.014,2.466-6.014,6.655v8.885c0,4.257,2.027,6.689,5.98,6.689,3.581,0,5.574-1.926,5.676-5.507l.033-3.176h3.649l-.034,2.601c-.202,5.371-3.277,9.087-9.324,9.087-6.452,0-9.595-4.223-9.595-10.27Z"/>
    <path d="M649.943,672.621h14.696v3.007h-11.183v9.257h10.608v3.041h-10.608v9.257h11.183v3.007h-14.696v-27.567Z"/>
    <path d="M668.421,672.621h3.344l11.115,20.507v-20.507h3.311v27.567h-3.345l-11.115-20.507v20.507h-3.311v-27.567Z"/>
    <path d="M696.019,675.628h-6.925v-3.007h17.365v3.007h-6.926v24.561h-3.513v-24.561Z"/>
    <path d="M723.179,697.722v-4.932c0-3.513-2.365-4.156-4.595-4.156h-5.709v11.554h-3.513v-27.567h9.257c5.743,0,8.175,1.959,8.175,7.432v.338c0,3.75-1.183,5.777-4.088,6.723,2.77.811,4.054,2.905,4.054,5.912v4.696c0,.946.034,1.959.372,2.466h-3.581c-.338-.439-.371-1.486-.371-2.466ZM718.619,685.763c3.074,0,4.561-1.183,4.561-4.493v-1.486c0-3.548-1.487-4.257-4.73-4.257h-5.574v10.236h5.743Z"/>
    <path d="M730.102,690.29v-7.804c0-5.946,3.176-10.203,9.595-10.203,6.385,0,9.561,4.257,9.561,10.203v7.804c0,5.98-3.176,10.236-9.561,10.236-6.419,0-9.595-4.257-9.595-10.236ZM739.697,697.486c3.919,0,5.946-2.466,5.946-6.655v-8.851c0-4.156-2.027-6.655-5.946-6.655-3.953,0-5.979,2.5-5.979,6.655v8.851c0,4.189,2.026,6.655,5.979,6.655Z"/>
    <path d="M761.687,672.621h8.412c6.148,0,9.561,2.466,9.561,9.966v7.635c0,7.466-3.446,9.966-9.561,9.966h-8.412v-27.567ZM770.099,697.283c4.257,0,5.946-1.757,5.946-6.723v-8.31c0-4.966-1.689-6.723-5.98-6.723h-4.865v21.756h4.899Z"/>
    <path d="M783.611,672.621h14.696v3.007h-11.183v9.257h10.608v3.041h-10.608v9.257h11.183v3.007h-14.696v-27.567Z"/>
    <path d="M810.669,672.621h14.695v3.007h-11.182v9.257h10.608v3.041h-10.608v9.257h11.182v3.007h-14.695v-27.567Z"/>
    <path d="M829.147,672.621h3.345l11.115,20.507v-20.507h3.311v27.567h-3.345l-11.115-20.507v20.507h-3.311v-27.567Z"/>
    <path d="M856.746,675.628h-6.925v-3.007h17.365v3.007h-6.926v24.561h-3.513v-24.561Z"/>
    <path d="M883.906,697.722v-4.932c0-3.513-2.365-4.156-4.595-4.156h-5.709v11.554h-3.513v-27.567h9.257c5.743,0,8.175,1.959,8.175,7.432v.338c0,3.75-1.183,5.777-4.088,6.723,2.77.811,4.054,2.905,4.054,5.912v4.696c0,.946.034,1.959.372,2.466h-3.581c-.338-.439-.371-1.486-.371-2.466ZM879.345,685.763c3.074,0,4.561-1.183,4.561-4.493v-1.486c0-3.548-1.487-4.257-4.73-4.257h-5.574v10.236h5.743Z"/>
    <path d="M891.64,672.621h14.696v3.007h-11.183v9.257h10.608v3.041h-10.608v9.257h11.183v3.007h-14.696v-27.567Z"/>
    <path d="M910.117,672.621h3.345l11.115,20.507v-20.507h3.311v27.567h-3.345l-11.115-20.507v20.507h-3.311v-27.567Z"/>
    <path d="M937.784,672.621h4.73l7.162,27.567h-3.649l-1.318-5.439h-9.087l-1.318,5.439h-3.649l7.129-27.567ZM944,691.743l-3.716-15.338-.136-.405-.101.371-3.716,15.371h7.669Z"/>
    <path d="M952.444,672.621h4.121l6.555,20.912,6.554-20.912h4.155v27.567h-3.277v-20.135l-6.385,20.135h-2.061l-6.386-20.135v20.135h-3.277v-27.567Z"/>
    <path d="M977.678,697.013h3.547v-21.216h-3.547v-3.176h10.608v3.176h-3.514v21.216h3.514v3.176h-10.608v-3.176Z"/>
    <path d="M992.17,672.621h14.696v3.007h-11.183v9.257h10.608v3.041h-10.608v9.257h11.183v3.007h-14.696v-27.567Z"/>
    <path d="M1010.648,672.621h3.344l11.115,20.507v-20.507h3.311v27.567h-3.345l-11.115-20.507v20.507h-3.311v-27.567Z"/>
    <path d="M1038.246,675.628h-6.925v-3.007h17.365v3.007h-6.926v24.561h-3.513v-24.561Z"/>
    <path d="M1049.663,690.29v-7.804c0-5.946,3.176-10.203,9.595-10.203,6.385,0,9.561,4.257,9.561,10.203v7.804c0,5.98-3.176,10.236-9.561,10.236-6.419,0-9.595-4.257-9.595-10.236ZM1059.258,697.486c3.919,0,5.946-2.466,5.946-6.655v-8.851c0-4.156-2.027-6.655-5.946-6.655-3.953,0-5.979,2.5-5.979,6.655v8.851c0,4.189,2.026,6.655,5.979,6.655Z"/>
  </g>
</svg>